<svg xmlns="http://www.w3.org/2000/svg" width="100" height="100" fill="none" viewBox="0 0 100 100">
  <path fill="#FF456E" d="M49.5 70.697c-2.378 0-4.35-2-4.35-4.41V52.228c0-6.293-5.047-11.41-11.254-11.41s-11.195 5.176-11.195 11.41v14.057c0 2.412-1.972 4.411-4.35 4.411-2.379 0-4.351-1.94-4.351-4.41V52.228c0-11.116 8.933-20.174 19.896-20.174 10.963 0 19.896 9.058 19.896 20.174v14.057a4.29 4.29 0 0 1-4.292 4.411Z"/>
  <path fill="#FF456E" d="M80.65 70.698c-2.379 0-4.35-2-4.35-4.412V33.937c0-6.293-5.047-11.41-11.254-11.41s-11.253 5.117-11.253 11.41v32.35c0 2.41-1.973 4.41-4.35 4.41-2.38 0-4.351-2-4.351-4.41v-32.35c.058-11.116 8.99-20.174 20.012-20.174C76.067 13.763 85 22.821 85 33.937v32.35c0 2.47-1.972 4.41-4.35 4.41Z"/>
  <path fill="#FF456E" d="M49.5 85.813c-10.963 0-19.896-9.057-19.896-20.174V51.23c0-2.411 1.972-4.41 4.35-4.41 2.379 0 4.35 1.999 4.35 4.41v14.352c0 6.293 5.047 11.41 11.254 11.41s11.253-5.117 11.253-11.41v-31.88c0-2.411 1.972-4.411 4.35-4.411 2.379 0 4.351 2 4.351 4.411v31.879c-.116 11.116-9.049 20.232-20.012 20.232Z"/>
</svg>
