<svg xmlns="http://www.w3.org/2000/svg" width="1000" height="1000" fill="none" viewBox="0 0 1000 1000">
  <g clip-path="url(#a)">
    <path fill="#000" d="M0 0h1000v1000H0z"/>
    <g clip-path="url(#b)">
      <path fill="#fff" d="M878.506 773.424c-23.546 0-41.332-5.01-53.353-15.03-11.524-10.02-17.284-25.547-17.284-46.59 0-21.544 5.76-37.324 17.284-47.344 12.021-10.02 29.807-15.026 53.353-15.026 24.047 0 41.833 5.006 53.353 15.026 12.025 10.02 18.038 25.8 18.038 47.344 0 41.079-23.798 61.62-71.391 61.62Zm-492.733-9.767V369.136h88.671l-.75 117.977h15.03c6.515-28.556 15.785-52.35 27.806-71.387s27.051-33.313 45.09-42.832c18.536-9.518 40.329-14.28 65.374-14.28 45.592 0 80.16 16.029 103.706 48.095 24.047 32.061 36.069 82.414 36.069 151.045v205.903H657.804V569.776c0-42.082-6.261-72.643-18.784-91.68-12.026-19.539-29.807-29.306-53.353-29.306-20.04 0-36.823 6.261-50.348 18.789-13.53 12.522-23.799 29.057-30.81 49.594-6.515 20.04-10.02 42.583-10.522 67.633v178.851H385.773Zm-270.086 0V511.164H53.313v-79.663l105.206 4.509v-14.267c-17.533-4.007-32.062-10.273-43.586-18.789-11.019-9.017-19.033-19.787-24.043-32.314-5.014-12.523-7.517-25.8-7.517-39.827 0-21.54 5.511-40.076 16.534-55.607 11.019-16.029 26.55-28.307 46.586-36.823 20.048-9.022 43.59-13.526 70.646-13.526 23.044 0 43.834 3.004 62.37 9.017 19.037 5.512 34.32 12.523 45.84 21.043l-6.763 97.684c-12.022-8.515-25.547-15.527-40.577-21.042-15.03-5.508-29.31-8.263-42.836-8.263-15.03 0-27.553 4.007-37.573 12.021-9.514 8.014-14.276 21.043-14.276 39.077 0 12.523 2.503 22.543 7.513 30.06 5.512 7.012 12.026 12.275 19.539 15.78 8.014 3.005 15.78 5.01 23.297 6.013h90.171v84.917H220.897v252.493h-105.21Z"/>
    </g>
  </g>
  <defs>
    <clipPath id="a">
      <path fill="#fff" d="M0 0h1000v1000H0z"/>
    </clipPath>
    <clipPath id="b">
      <path fill="#fff" d="M50 223.572h900v552.857H50z"/>
    </clipPath>
  </defs>
</svg>
